+15_ID_stride5.mot
nRows=10
nColumns=38

name +15_ID_stride5.mot
datacolumns 38
datarows 10
range 2.2250000000 2.2700000000
endheader
time	pelvis_tilt_moment	pelvis_list_moment	pelvis_rotation_moment	pelvis_tx_force	pelvis_ty_force	pelvis_tz_force	hip_flexion_r_moment	hip_adduction_r_moment	hip_rotation_r_moment	knee_angle_r_moment	ankle_angle_r_moment	subtalar_angle_r_moment	mtp_angle_r_moment	hip_flexion_l_moment	hip_adduction_l_moment	hip_rotation_l_moment	knee_angle_l_moment	ankle_angle_l_moment	subtalar_angle_l_moment	mtp_angle_l_moment	lumbar_extension_moment	lumbar_bending_moment	lumbar_rotation_moment	arm_flex_r_moment	arm_add_r_moment	arm_rot_r_moment	elbow_flex_r_moment	pro_sup_r_moment	wrist_flex_r_moment	wrist_dev_r_moment	arm_flex_l_moment	arm_add_l_moment	arm_rot_l_moment	elbow_flex_l_moment	pro_sup_l_moment	wrist_flex_l_moment	wrist_dev_l_moment
        2.2250000000	       35.3155301467	      -10.7045866736	       22.2748264639	        2.1602699432	        6.4671167658	      -83.6588366624	      -24.9539635713	      -13.9646454923	       -1.6679264924	       -4.1577333871	        2.4988586997	       -0.6054880719	        0.1298314400	       14.2039919720	      -37.6290350357	       -3.1562260338	       11.6594129117	     -167.9485442931	       25.5647660361	       -0.0422103138	       24.0523813725	       -8.4732306252	       40.8239158075	        8.9609628757	        5.3687741913	        4.0962491861	        5.8854595312	        0.0175691778	        0.5620153933	       -0.4035811917	        0.4732183837	       -1.6859776446	       -3.3312308741	        5.1743841526	       -0.2214318385	       -0.2884768244	       -0.5420621048	
        2.2300000000	       26.6615036735	      -22.2822298956	       14.5581201024	       -6.5019351614	       10.3163358729	      -89.5172070727	      -29.6134196207	      -11.0567663214	       -2.6894589961	       -5.1199896944	        2.4592200432	       -0.6128417587	        0.1232454389	       17.7043409727	      -38.1059178236	        2.3293474910	        5.3436913787	     -157.0527442117	       25.3277042028	       -0.0438813721	       13.1768363573	      -12.6274449450	       40.1523955956	        8.8668501539	        4.9119072553	        3.8432596634	        5.3899209771	        0.0238578752	        0.5289895172	       -0.3595501466	        0.1834820562	       -1.6711729221	       -3.2399041191	        4.5229252225	       -0.2090323867	       -0.2918902446	       -0.4814538647	
        2.2350000000	       15.9115597077	      -33.2689146607	       12.0344462531	      -10.9655890828	       12.2413951294	      -89.8681658535	      -33.8075448998	       -5.3806928704	       -3.8384730097	       -6.3862842828	        2.4438569084	       -0.6144049680	        0.1183888247	       19.2883435701	      -37.1600339145	        3.8939878323	       -1.4938077867	     -145.2449771664	       23.5462187487	       -0.0448925623	        3.7005693137	      -15.0465935706	       39.0209212780	        8.4569358282	        4.3105187463	        3.5287832984	        4.8045282368	        0.0299207861	        0.4890220703	       -0.3094360788	       -0.2596774805	       -1.4941882310	       -3.0277293962	        3.7967621027	       -0.1924515646	       -0.2896308107	       -0.4124183443	
        2.2400000000	        6.2751435414	      -39.6925121787	       16.1997138300	      -11.0120957045	        4.3223229531	      -84.1331273079	      -37.3152255517	        2.3887699335	       -4.8330418454	       -8.0823747560	        2.4554439156	       -0.6191445039	        0.1153447525	       21.2566054010	      -30.5535609820	        1.1028220947	       -6.6157513282	     -132.1467423919	       21.4374177396	       -0.0452693403	       -4.1085501815	      -15.9592716190	       37.9426614023	        7.8824470561	        3.6018400996	        3.1853594869	        4.1285360836	        0.0369793383	        0.4458459448	       -0.2528320210	       -0.8701905656	       -1.2310068974	       -2.7671374830	        2.9938115917	       -0.1726199740	       -0.2829503058	       -0.3362670231	
        2.2450000000	       -2.3731660962	      -35.2878483989	       23.8899619025	       -5.3141866025	      -19.0316600164	      -78.6147559059	      -40.3545690175	       11.5242755310	       -5.2742151643	      -10.4695116600	        2.4851153521	       -0.6363937385	        0.1139172054	       28.2777784442	      -20.8795982723	       -2.1856284841	       -6.6579435918	     -117.5118883581	       19.9350098175	       -0.0441931936	      -10.2398211942	      -15.1712024368	       37.2639084209	        7.2016564572	        2.8456218115	        2.8557205383	        3.3642544359	        0.0463894891	        0.4039152336	       -0.1892245728	       -1.6410940205	       -0.9437729713	       -2.5059780480	        2.1155450097	       -0.1510322534	       -0.2792253570	       -0.2545975808	
        2.2500000000	      -11.6547421586	      -23.7046366709	       32.0695708044	        4.2487569264	      -56.7575868332	      -77.1602332983	      -42.7310260804	       21.0733641250	       -5.2557498917	      -13.5105778471	        2.5327350605	       -0.6659987881	        0.1137618909	       40.7119847260	      -11.2303792029	       -2.9303683058	       -5.5086912699	     -101.4202023221	       18.4676613256	       -0.0413429504	      -15.1867352114	      -13.4216874000	       37.1406454453	        6.4466034024	        2.1026407591	        2.5749191526	        2.5252207365	        0.0584171448	        0.3662167813	       -0.1190300089	       -2.5474409102	       -0.6929641305	       -2.2825189259	        1.1773735429	       -0.1288633086	       -0.2794313002	       -0.1690799749	
        2.2550000000	      -22.3032069099	       -1.0280635420	       38.6532717306	       14.9286551548	     -109.2245733479	      -77.5513167596	      -44.7840973101	       30.2214025923	       -4.4130642007	      -17.4072476459	        2.5726550886	       -0.7054715463	        0.1146349542	       59.0220435568	       -3.9785459358	       -0.8638367628	        1.0616198286	      -84.1167354218	       16.6705181799	       -0.0346696445	      -19.1417869419	      -10.5015175138	       37.4959460050	        5.6172286047	        1.4238927018	        2.3692559527	        1.6086747653	        0.0739338373	        0.3349069457	       -0.0412786358	       -3.5971737178	       -0.5407110180	       -2.1218705682	        0.1826132296	       -0.1068371169	       -0.2875308298	       -0.0802806403	
        2.2600000000	      -33.4618723838	       22.5000726426	       43.5769726386	       24.8367665709	     -171.0719253831	      -76.2549265162	      -47.7505403842	       38.0708533145	       -2.8515206712	      -22.3155316828	        2.5768365925	       -0.7374395080	        0.1152892308	       77.6609158771	        0.4577112137	        3.0386709658	        7.5610062339	      -67.2305627277	       13.8958561717	       -0.0229910721	      -22.4300942807	       -7.1869930827	       38.2843247898	        4.6857370439	        0.8544742294	        2.2494670993	        0.6318529283	        0.0925081209	        0.3104558644	        0.0432204332	       -4.7704970591	       -0.4986293513	       -2.0283299167	       -0.8460802976	       -0.0854205075	       -0.3027508088	        0.0105922530	
        2.2650000000	      -41.8950981842	       39.6628453440	       48.0283785785	       33.5179738127	     -237.6289167213	      -64.1778841603	      -52.9471985164	       43.9444468884	       -0.7778997328	      -28.3341341710	        2.4881199741	       -0.7427547282	        0.1146499448	       91.1404300565	        4.3118111033	        5.5837818196	       11.1630347497	      -53.1361110297	       10.8359560140	       -0.0049285285	      -25.0985614033	       -4.0191446794	       39.0948818328	        3.5810410919	        0.4261136477	        2.2253648699	       -0.3878000306	        0.1133574508	        0.2923569351	        0.1333644818	       -6.0630513538	       -0.6192351215	       -1.9928465089	       -1.8834430274	       -0.0645630335	       -0.3218799717	        0.1025784542	
        2.2700000000	      -41.2411729051	       44.4939834999	       52.7487676220	       41.3709261783	     -301.8963375837	      -37.5259813991	      -60.5571133266	       47.1492716238	        1.5910309767	      -35.2176744392	        2.3045224478	       -0.7174698444	        0.1126928464	       96.3786969509	       10.7260765968	        5.0896448342	       10.6229006644	      -42.8177306880	        8.6435662013	        0.0204395031	      -27.0409052751	       -1.4968313471	       39.2990344521	        2.2463324714	        0.1500659176	        2.2693157996	       -1.4174688766	        0.1350935314	        0.2789088866	        0.2263506082	       -7.4499660933	       -0.8807767237	       -1.9923591864	       -2.8905582532	       -0.0441149348	       -0.3411474113	        0.1936682773	
